<svg width="126" height="126" viewBox="0 0 126 126" fill="none" xmlns="http://www.w3.org/2000/svg">
<path d="M63 34.125C57.2891 34.125 51.7064 35.8185 46.9579 38.9913C42.2094 42.1641 38.5085 46.6738 36.323 51.95C34.1375 57.2262 33.5657 63.032 34.6798 68.6332C35.794 74.2344 38.544 79.3795 42.5823 83.4177C46.6205 87.456 51.7656 90.206 57.3668 91.3202C62.968 92.4343 68.7738 91.8625 74.05 89.677C79.3262 87.4915 83.8359 83.7906 87.0087 79.0421C90.1815 74.2936 91.875 68.7109 91.875 63C91.8664 55.3445 88.8214 48.0051 83.4082 42.5918C77.9949 37.1786 70.6555 34.1336 63 34.125ZM63 86.625C58.3274 86.625 53.7598 85.2394 49.8747 82.6435C45.9895 80.0475 42.9615 76.3578 41.1733 72.0409C39.3852 67.724 38.9174 62.9738 39.8289 58.391C40.7405 53.8082 42.9906 49.5986 46.2946 46.2946C49.5986 42.9906 53.8082 40.7405 58.391 39.8289C62.9738 38.9174 67.724 39.3852 72.0409 41.1733C76.3578 42.9615 80.0475 45.9895 82.6435 49.8747C85.2394 53.7598 86.625 58.3274 86.625 63C86.6179 69.2636 84.1266 75.2686 79.6976 79.6976C75.2686 84.1266 69.2636 86.6179 63 86.625ZM91.875 0H34.125C25.0776 0.0102479 16.4038 3.60884 10.0063 10.0063C3.60884 16.4038 0.0102479 25.0776 0 34.125V91.875C0.0102479 100.922 3.60884 109.596 10.0063 115.994C16.4038 122.391 25.0776 125.99 34.125 126H91.875C100.922 125.99 109.596 122.391 115.994 115.994C122.391 109.596 125.99 100.922 126 91.875V34.125C125.99 25.0776 122.391 16.4038 115.994 10.0063C109.596 3.60884 100.922 0.0102479 91.875 0ZM120.75 91.875C120.741 99.5305 117.696 106.87 112.283 112.283C106.87 117.696 99.5305 120.741 91.875 120.75H34.125C26.4695 120.741 19.1301 117.696 13.7168 112.283C8.3036 106.87 5.25865 99.5305 5.25 91.875V34.125C5.25865 26.4695 8.3036 19.1301 13.7168 13.7168C19.1301 8.3036 26.4695 5.25865 34.125 5.25H91.875C99.5305 5.25865 106.87 8.3036 112.283 13.7168C117.696 19.1301 120.741 26.4695 120.75 34.125V91.875ZM102.375 28.875C102.375 29.9134 102.067 30.9284 101.49 31.7917C100.913 32.6551 100.093 33.328 99.1341 33.7254C98.1748 34.1227 97.1192 34.2267 96.1008 34.0241C95.0824 33.8216 94.1469 33.3215 93.4127 32.5873C92.6785 31.8531 92.1784 30.9176 91.9759 29.8992C91.7733 28.8808 91.8773 27.8252 92.2746 26.8659C92.672 25.9066 93.3449 25.0867 94.2083 24.5098C95.0716 23.9329 96.0866 23.625 97.125 23.625C98.5169 23.6266 99.8513 24.1802 100.836 25.1644C101.82 26.1487 102.373 27.4831 102.375 28.875Z" fill="#FFFAFA"/>
</svg>
