<svg width="143" height="125" viewBox="0 0 143 125" fill="none" xmlns="http://www.w3.org/2000/svg">
<path d="M134.351 2.68335C138.605 2.68335 141.814 6.53752 140.097 13.7063L119.276 115.071C117.821 122.278 113.605 124.013 107.784 120.659L58.1196 82.7729C57.927 82.6302 57.7701 82.4421 57.6618 82.2243C57.5536 82.0065 57.4971 81.7652 57.4971 81.5203C57.4971 81.2755 57.5536 81.0342 57.6618 80.8163C57.7701 80.5985 57.927 80.4105 58.1196 80.2677L115.47 26.7719C118.082 24.3823 114.911 23.2261 111.478 25.3844L39.5001 72.2896C39.2818 72.4367 39.034 72.5304 38.7754 72.5638C38.5168 72.5972 38.2542 72.5693 38.0076 72.4823L7.44785 62.5C0.656799 60.4573 0.656799 55.6396 8.97771 52.2094L131.254 3.49272C132.224 3.01219 133.277 2.73699 134.351 2.68335Z" stroke="#FFFEFE" stroke-width="4.67881" stroke-linecap="round" stroke-linejoin="round"/>
</svg>
