<svg width="55" height="51" viewBox="0 0 55 51" fill="none" xmlns="http://www.w3.org/2000/svg">
<path d="M27.5725 50C42.248 50 54.1449 39.031 54.1449 25.5C54.1449 11.969 42.248 1 27.5725 1C12.8969 1 1 11.969 1 25.5C1 39.031 12.8969 50 27.5725 50Z" stroke="#616060" stroke-width="1.6112" stroke-miterlimit="10" stroke-linejoin="round"/>
<path d="M45.2874 43.4667C45.2874 34.4458 37.3564 27.1334 27.5724 27.1334C17.7884 27.1334 9.85742 34.4458 9.85742 43.4667" stroke="#616060" stroke-width="1.6112" stroke-miterlimit="10" stroke-linejoin="round"/>
<path d="M27.5723 27.1333C33.4426 27.1333 38.2013 22.7457 38.2013 17.3333C38.2013 11.9209 33.4426 7.53333 27.5723 7.53333C21.7021 7.53333 16.9434 11.9209 16.9434 17.3333C16.9434 22.7457 21.7021 27.1333 27.5723 27.1333Z" stroke="#616060" stroke-width="1.6112" stroke-miterlimit="10" stroke-linejoin="round"/>
</svg>
