<svg width="976" height="89" viewBox="0 0 976 89" fill="none" xmlns="http://www.w3.org/2000/svg">
<rect x="52" y="21" width="872" height="45" rx="22.5" fill="#D9D9D9" fill-opacity="0.6"/>
<path d="M799.705 53.2386C798.58 53.2386 797.577 53.0455 796.696 52.6591C795.821 52.2727 795.125 51.7358 794.608 51.0483C794.097 50.3551 793.818 49.5511 793.773 48.6364H795.92C795.966 49.1989 796.159 49.6847 796.5 50.0938C796.841 50.4972 797.287 50.8097 797.838 51.0312C798.389 51.2528 799 51.3636 799.67 51.3636C800.42 51.3636 801.085 51.233 801.665 50.9716C802.244 50.7102 802.699 50.3466 803.028 49.8807C803.358 49.4148 803.523 48.875 803.523 48.2614C803.523 47.6193 803.364 47.054 803.045 46.5653C802.727 46.071 802.261 45.6847 801.648 45.4062C801.034 45.1278 800.284 44.9886 799.398 44.9886H798V43.1136H799.398C800.091 43.1136 800.699 42.9886 801.222 42.7386C801.75 42.4886 802.162 42.1364 802.457 41.6818C802.759 41.2273 802.909 40.6932 802.909 40.0795C802.909 39.4886 802.778 38.9744 802.517 38.5369C802.256 38.0994 801.886 37.7585 801.409 37.5142C800.938 37.2699 800.381 37.1477 799.739 37.1477C799.136 37.1477 798.568 37.2585 798.034 37.4801C797.506 37.696 797.074 38.0114 796.739 38.4261C796.403 38.8352 796.222 39.3295 796.193 39.9091H794.148C794.182 38.9943 794.457 38.1932 794.974 37.5057C795.491 36.8125 796.168 36.2727 797.003 35.8864C797.844 35.5 798.767 35.3068 799.773 35.3068C800.852 35.3068 801.778 35.5256 802.551 35.9631C803.324 36.3949 803.918 36.9659 804.332 37.6761C804.747 38.3864 804.955 39.1534 804.955 39.9773C804.955 40.9602 804.696 41.7983 804.179 42.4915C803.668 43.1847 802.972 43.6648 802.091 43.9318V44.0682C803.193 44.25 804.054 44.7187 804.673 45.4744C805.293 46.2244 805.602 47.1534 805.602 48.2614C805.602 49.2102 805.344 50.0625 804.827 50.8182C804.315 51.5682 803.616 52.1591 802.73 52.5909C801.844 53.0227 800.835 53.2386 799.705 53.2386ZM812.974 53.3068C812.145 53.3068 811.392 53.1506 810.716 52.8381C810.04 52.5199 809.503 52.0625 809.105 51.4659C808.707 50.8636 808.509 50.1364 808.509 49.2841C808.509 48.5341 808.656 47.9261 808.952 47.4602C809.247 46.9886 809.642 46.6193 810.136 46.3523C810.631 46.0852 811.176 45.8864 811.773 45.7557C812.375 45.6193 812.98 45.5114 813.588 45.4318C814.384 45.3295 815.028 45.2528 815.523 45.2017C816.023 45.1449 816.386 45.0511 816.614 44.9205C816.847 44.7898 816.963 44.5625 816.963 44.2386V44.1705C816.963 43.3295 816.733 42.6761 816.273 42.2102C815.818 41.7443 815.128 41.5114 814.202 41.5114C813.241 41.5114 812.489 41.7216 811.943 42.142C811.398 42.5625 811.014 43.0114 810.793 43.4886L808.884 42.8068C809.224 42.0114 809.679 41.392 810.247 40.9489C810.821 40.5 811.446 40.1875 812.122 40.0114C812.804 39.8295 813.474 39.7386 814.134 39.7386C814.554 39.7386 815.037 39.7898 815.582 39.892C816.134 39.9886 816.665 40.1903 817.176 40.4972C817.693 40.804 818.122 41.267 818.463 41.8864C818.804 42.5057 818.974 43.3352 818.974 44.375V53H816.963V51.2273H816.861C816.724 51.5114 816.497 51.8153 816.179 52.1392C815.861 52.4631 815.438 52.7386 814.909 52.9659C814.381 53.1932 813.736 53.3068 812.974 53.3068ZM813.281 51.5C814.077 51.5 814.747 51.3438 815.293 51.0312C815.844 50.7188 816.259 50.3153 816.537 49.821C816.821 49.3267 816.963 48.8068 816.963 48.2614V46.4205C816.878 46.5227 816.69 46.6165 816.401 46.7017C816.116 46.7812 815.787 46.8523 815.412 46.9148C815.043 46.9716 814.682 47.0227 814.33 47.0682C813.983 47.108 813.702 47.142 813.486 47.1705C812.963 47.2386 812.474 47.3494 812.02 47.5028C811.571 47.6506 811.207 47.875 810.929 48.1761C810.656 48.4716 810.52 48.875 810.52 49.3864C810.52 50.0852 810.778 50.6136 811.295 50.9716C811.818 51.3239 812.48 51.5 813.281 51.5ZM822.646 53V39.9091H832.941V53H830.93V41.7841H824.657V53H822.646ZM838.626 50.0341L844.933 39.9091H847.251V53H845.239V42.875L838.967 53H836.614V39.9091H838.626V50.0341ZM856.253 53.2727C855.026 53.2727 853.969 52.983 853.082 52.4034C852.196 51.8239 851.514 51.0256 851.037 50.0085C850.56 48.9915 850.321 47.8295 850.321 46.5227C850.321 45.1932 850.565 44.0199 851.054 43.0028C851.548 41.9801 852.236 41.1818 853.116 40.608C854.003 40.0284 855.037 39.7386 856.219 39.7386C857.139 39.7386 857.969 39.9091 858.707 40.25C859.446 40.5909 860.051 41.0682 860.523 41.6818C860.994 42.2955 861.287 43.0114 861.401 43.8295H859.389C859.236 43.233 858.895 42.7045 858.366 42.2443C857.844 41.7784 857.139 41.5455 856.253 41.5455C855.469 41.5455 854.781 41.75 854.19 42.1591C853.605 42.5625 853.148 43.1335 852.818 43.8722C852.494 44.6051 852.332 45.4659 852.332 46.4545C852.332 47.4659 852.491 48.3466 852.81 49.0966C853.134 49.8466 853.588 50.429 854.173 50.8438C854.764 51.2585 855.457 51.4659 856.253 51.4659C856.776 51.4659 857.25 51.375 857.676 51.1932C858.102 51.0114 858.463 50.75 858.759 50.4091C859.054 50.0682 859.264 49.6591 859.389 49.1818H861.401C861.287 49.9545 861.006 50.6506 860.557 51.2699C860.114 51.8835 859.526 52.3722 858.793 52.7358C858.065 53.0938 857.219 53.2727 856.253 53.2727ZM866.08 44.6477H869.83C871.364 44.6477 872.537 45.0369 873.349 45.8153C874.162 46.5937 874.568 47.5795 874.568 48.7727C874.568 49.5568 874.386 50.2699 874.023 50.9119C873.659 51.5483 873.125 52.0568 872.42 52.4375C871.716 52.8125 870.852 53 869.83 53H864.341V39.9091H866.352V51.125H869.83C870.625 51.125 871.278 50.9148 871.79 50.4943C872.301 50.0739 872.557 49.5341 872.557 48.875C872.557 48.1818 872.301 47.6165 871.79 47.179C871.278 46.7415 870.625 46.5227 869.83 46.5227H866.08V44.6477Z" fill="#656363"/>
<rect x="52" y="22" width="164" height="45" rx="22.5" fill="#D5C4DB"/>
<path d="M331.841 44.2727C331.841 46.1136 331.509 47.7045 330.844 49.0455C330.179 50.3864 329.267 51.4205 328.108 52.1477C326.949 52.875 325.625 53.2386 324.136 53.2386C322.648 53.2386 321.324 52.875 320.165 52.1477C319.006 51.4205 318.094 50.3864 317.429 49.0455C316.764 47.7045 316.432 46.1136 316.432 44.2727C316.432 42.4318 316.764 40.8409 317.429 39.5C318.094 38.1591 319.006 37.125 320.165 36.3977C321.324 35.6705 322.648 35.3068 324.136 35.3068C325.625 35.3068 326.949 35.6705 328.108 36.3977C329.267 37.125 330.179 38.1591 330.844 39.5C331.509 40.8409 331.841 42.4318 331.841 44.2727ZM329.795 44.2727C329.795 42.7614 329.543 41.4858 329.037 40.446C328.537 39.4062 327.858 38.6193 327 38.0852C326.148 37.5511 325.193 37.2841 324.136 37.2841C323.08 37.2841 322.122 37.5511 321.264 38.0852C320.412 38.6193 319.733 39.4062 319.227 40.446C318.727 41.4858 318.477 42.7614 318.477 44.2727C318.477 45.7841 318.727 47.0597 319.227 48.0994C319.733 49.1392 320.412 49.9261 321.264 50.4602C322.122 50.9943 323.08 51.2614 324.136 51.2614C325.193 51.2614 326.148 50.9943 327 50.4602C327.858 49.9261 328.537 49.1392 329.037 48.0994C329.543 47.0597 329.795 45.7841 329.795 44.2727ZM350.634 45.5341V47.4091H343.406V45.5341H350.634ZM343.884 39.9091V53H341.872V39.9091H343.884ZM352.168 39.9091V53H350.156V39.9091H352.168ZM359.693 53.3068C358.864 53.3068 358.111 53.1506 357.435 52.8381C356.759 52.5199 356.222 52.0625 355.824 51.4659C355.426 50.8636 355.227 50.1364 355.227 49.2841C355.227 48.5341 355.375 47.9261 355.67 47.4602C355.966 46.9886 356.361 46.6193 356.855 46.3523C357.349 46.0852 357.895 45.8864 358.491 45.7557C359.094 45.6193 359.699 45.5114 360.307 45.4318C361.102 45.3295 361.747 45.2528 362.241 45.2017C362.741 45.1449 363.105 45.0511 363.332 44.9205C363.565 44.7898 363.682 44.5625 363.682 44.2386V44.1705C363.682 43.3295 363.452 42.6761 362.991 42.2102C362.537 41.7443 361.847 41.5114 360.92 41.5114C359.96 41.5114 359.207 41.7216 358.662 42.142C358.116 42.5625 357.733 43.0114 357.511 43.4886L355.602 42.8068C355.943 42.0114 356.398 41.392 356.966 40.9489C357.54 40.5 358.165 40.1875 358.841 40.0114C359.523 39.8295 360.193 39.7386 360.852 39.7386C361.273 39.7386 361.756 39.7898 362.301 39.892C362.852 39.9886 363.384 40.1903 363.895 40.4972C364.412 40.804 364.841 41.267 365.182 41.8864C365.523 42.5057 365.693 43.3352 365.693 44.375V53H363.682V51.2273H363.58C363.443 51.5114 363.216 51.8153 362.898 52.1392C362.58 52.4631 362.156 52.7386 361.628 52.9659C361.099 53.1932 360.455 53.3068 359.693 53.3068ZM360 51.5C360.795 51.5 361.466 51.3438 362.011 51.0312C362.563 50.7188 362.977 50.3153 363.256 49.821C363.54 49.3267 363.682 48.8068 363.682 48.2614V46.4205C363.597 46.5227 363.409 46.6165 363.119 46.7017C362.835 46.7812 362.506 46.8523 362.131 46.9148C361.761 46.9716 361.401 47.0227 361.048 47.0682C360.702 47.108 360.42 47.142 360.205 47.1705C359.682 47.2386 359.193 47.3494 358.739 47.5028C358.29 47.6506 357.926 47.875 357.648 48.1761C357.375 48.4716 357.239 48.875 357.239 49.3864C357.239 50.0852 357.497 50.6136 358.014 50.9716C358.537 51.3239 359.199 51.5 360 51.5ZM374.683 53.2727C373.455 53.2727 372.398 52.983 371.512 52.4034C370.626 51.8239 369.944 51.0256 369.467 50.0085C368.989 48.9915 368.751 47.8295 368.751 46.5227C368.751 45.1932 368.995 44.0199 369.484 43.0028C369.978 41.9801 370.665 41.1818 371.546 40.608C372.433 40.0284 373.467 39.7386 374.648 39.7386C375.569 39.7386 376.398 39.9091 377.137 40.25C377.876 40.5909 378.481 41.0682 378.952 41.6818C379.424 42.2955 379.717 43.0114 379.83 43.8295H377.819C377.665 43.233 377.325 42.7045 376.796 42.2443C376.273 41.7784 375.569 41.5455 374.683 41.5455C373.898 41.5455 373.211 41.75 372.62 42.1591C372.035 42.5625 371.577 43.1335 371.248 43.8722C370.924 44.6051 370.762 45.4659 370.762 46.4545C370.762 47.4659 370.921 48.3466 371.239 49.0966C371.563 49.8466 372.018 50.429 372.603 50.8438C373.194 51.2585 373.887 51.4659 374.683 51.4659C375.205 51.4659 375.68 51.375 376.106 51.1932C376.532 51.0114 376.893 50.75 377.188 50.4091C377.484 50.0682 377.694 49.6591 377.819 49.1818H379.83C379.717 49.9545 379.435 50.6506 378.987 51.2699C378.543 51.8835 377.955 52.3722 377.222 52.7358C376.495 53.0938 375.648 53.2727 374.683 53.2727Z" fill="#656363"/>
<path d="M513.614 57.2273V51.125H514.739C515.125 50.7727 515.489 50.2756 515.83 49.6335C516.176 48.9858 516.469 48.1222 516.707 47.0426C516.952 45.9574 517.114 44.5795 517.193 42.9091L517.568 35.5455H527.932V51.125H529.943V57.1932H527.932V53H515.625V57.2273H513.614ZM517.261 51.125H525.92V37.4205H519.477L519.205 42.9091C519.136 44.1818 519.017 45.3352 518.847 46.3693C518.676 47.3977 518.457 48.3097 518.19 49.1051C517.923 49.8949 517.614 50.5682 517.261 51.125ZM538.183 53.2727C537.001 53.2727 535.964 52.9915 535.072 52.429C534.185 51.8665 533.492 51.0795 532.992 50.0682C532.498 49.0568 532.251 47.875 532.251 46.5227C532.251 45.1591 532.498 43.9687 532.992 42.9517C533.492 41.9347 534.185 41.1449 535.072 40.5824C535.964 40.0199 537.001 39.7386 538.183 39.7386C539.364 39.7386 540.398 40.0199 541.285 40.5824C542.177 41.1449 542.87 41.9347 543.364 42.9517C543.864 43.9687 544.114 45.1591 544.114 46.5227C544.114 47.875 543.864 49.0568 543.364 50.0682C542.87 51.0795 542.177 51.8665 541.285 52.429C540.398 52.9915 539.364 53.2727 538.183 53.2727ZM538.183 51.4659C539.08 51.4659 539.819 51.2358 540.398 50.7756C540.978 50.3153 541.407 49.7102 541.685 48.9602C541.964 48.2102 542.103 47.3977 542.103 46.5227C542.103 45.6477 541.964 44.8324 541.685 44.0767C541.407 43.321 540.978 42.7102 540.398 42.2443C539.819 41.7784 539.08 41.5455 538.183 41.5455C537.285 41.5455 536.546 41.7784 535.967 42.2443C535.387 42.7102 534.958 43.321 534.68 44.0767C534.401 44.8324 534.262 45.6477 534.262 46.5227C534.262 47.3977 534.401 48.2102 534.68 48.9602C534.958 49.7102 535.387 50.3153 535.967 50.7756C536.546 51.2358 537.285 51.4659 538.183 51.4659ZM552.503 53.2727C551.276 53.2727 550.219 52.983 549.332 52.4034C548.446 51.8239 547.764 51.0256 547.287 50.0085C546.81 48.9915 546.571 47.8295 546.571 46.5227C546.571 45.1932 546.815 44.0199 547.304 43.0028C547.798 41.9801 548.486 41.1818 549.366 40.608C550.253 40.0284 551.287 39.7386 552.469 39.7386C553.389 39.7386 554.219 39.9091 554.957 40.25C555.696 40.5909 556.301 41.0682 556.773 41.6818C557.244 42.2955 557.537 43.0114 557.651 43.8295H555.639C555.486 43.233 555.145 42.7045 554.616 42.2443C554.094 41.7784 553.389 41.5455 552.503 41.5455C551.719 41.5455 551.031 41.75 550.44 42.1591C549.855 42.5625 549.398 43.1335 549.068 43.8722C548.744 44.6051 548.582 45.4659 548.582 46.4545C548.582 47.4659 548.741 48.3466 549.06 49.0966C549.384 49.8466 549.838 50.429 550.423 50.8438C551.014 51.2585 551.707 51.4659 552.503 51.4659C553.026 51.4659 553.5 51.375 553.926 51.1932C554.352 51.0114 554.713 50.75 555.009 50.4091C555.304 50.0682 555.514 49.6591 555.639 49.1818H557.651C557.537 49.9545 557.256 50.6506 556.807 51.2699C556.364 51.8835 555.776 52.3722 555.043 52.7358C554.315 53.0938 553.469 53.2727 552.503 53.2727ZM559.56 41.7841V39.9091H570.196V41.7841H565.901V53H563.889V41.7841H559.56ZM575.141 50.0341L581.448 39.9091H583.766V53H581.755V42.875L575.482 53H573.13V39.9091H575.141V50.0341ZM586.632 53L591.95 46.3523L586.7 39.9091H589.087L593.45 45.5H594.541V39.9091H596.553V45.5H597.609L601.973 39.9091H604.359L599.143 46.3523L604.428 53H602.007L597.575 47.375H596.553V53H594.541V47.375H593.518L589.053 53H586.632ZM612.251 53.2727C610.99 53.2727 609.902 52.9943 608.987 52.4375C608.078 51.875 607.376 51.0909 606.882 50.0852C606.393 49.0739 606.149 47.8977 606.149 46.5568C606.149 45.2159 606.393 44.0341 606.882 43.0114C607.376 41.983 608.064 41.1818 608.945 40.608C609.831 40.0284 610.865 39.7386 612.047 39.7386C612.729 39.7386 613.402 39.8523 614.067 40.0795C614.732 40.3068 615.337 40.6761 615.882 41.1875C616.428 41.6932 616.862 42.3636 617.186 43.1989C617.51 44.0341 617.672 45.0625 617.672 46.2841V47.1364H607.581V45.3977H615.626C615.626 44.6591 615.479 44 615.183 43.4205C614.893 42.8409 614.479 42.3835 613.939 42.0483C613.405 41.7131 612.774 41.5455 612.047 41.5455C611.246 41.5455 610.553 41.7443 609.967 42.142C609.388 42.5341 608.942 43.0455 608.629 43.6761C608.317 44.3068 608.161 44.983 608.161 45.7045V46.8636C608.161 47.8523 608.331 48.6903 608.672 49.3778C609.018 50.0597 609.499 50.5795 610.112 50.9375C610.726 51.2898 611.439 51.4659 612.251 51.4659C612.78 51.4659 613.257 51.392 613.683 51.2443C614.115 51.0909 614.487 50.8636 614.8 50.5625C615.112 50.2557 615.354 49.875 615.524 49.4205L617.467 49.9659C617.263 50.625 616.919 51.2045 616.436 51.7045C615.953 52.1989 615.357 52.5852 614.646 52.8636C613.936 53.1364 613.138 53.2727 612.251 53.2727ZM629.493 45.5341V47.4091H622.266V45.5341H629.493ZM622.743 39.9091V53H620.732V39.9091H622.743ZM631.027 39.9091V53H629.016V39.9091H631.027ZM636.712 50.0341L643.018 39.9091H645.337V53H643.325V42.875L637.053 53H634.7V39.9091H636.712V50.0341ZM656.896 53V41.75H653.418C652.634 41.75 652.018 41.9318 651.569 42.2955C651.12 42.6591 650.896 43.1591 650.896 43.7955C650.896 44.4205 651.097 44.9119 651.501 45.2699C651.91 45.6278 652.469 45.8068 653.18 45.8068H657.407V47.6818H653.18C652.293 47.6818 651.529 47.5256 650.887 47.2131C650.245 46.9006 649.751 46.4545 649.404 45.875C649.058 45.2898 648.884 44.5966 648.884 43.7955C648.884 42.9886 649.066 42.2955 649.43 41.7159C649.793 41.1364 650.313 40.6903 650.989 40.3778C651.671 40.0653 652.481 39.9091 653.418 39.9091H658.805V53H656.896ZM648.168 53L651.884 46.4886H654.066L650.35 53H648.168Z" fill="#656363"/>
<path d="M99.6477 35.5455V37.4205H91.2273V53H89.1136V35.5455H99.6477ZM101.487 53V51.125H101.964C102.356 51.125 102.683 51.0483 102.944 50.8949C103.205 50.7358 103.415 50.4602 103.575 50.0682C103.739 49.6705 103.864 49.1193 103.95 48.4148C104.04 47.7045 104.106 46.8011 104.146 45.7045L104.384 39.9091H113.112V53H111.1V41.7841H106.293L106.089 46.4545C106.043 47.5284 105.947 48.4744 105.799 49.2926C105.657 50.1051 105.438 50.7869 105.143 51.3381C104.853 51.8892 104.467 52.304 103.984 52.5824C103.501 52.8608 102.896 53 102.168 53H101.487ZM120.654 53.3068C119.825 53.3068 119.072 53.1506 118.396 52.8381C117.719 52.5199 117.183 52.0625 116.785 51.4659C116.387 50.8636 116.188 50.1364 116.188 49.2841C116.188 48.5341 116.336 47.9261 116.631 47.4602C116.927 46.9886 117.322 46.6193 117.816 46.3523C118.31 46.0852 118.856 45.8864 119.452 45.7557C120.055 45.6193 120.66 45.5114 121.268 45.4318C122.063 45.3295 122.708 45.2528 123.202 45.2017C123.702 45.1449 124.066 45.0511 124.293 44.9205C124.526 44.7898 124.643 44.5625 124.643 44.2386V44.1705C124.643 43.3295 124.413 42.6761 123.952 42.2102C123.498 41.7443 122.808 41.5114 121.881 41.5114C120.921 41.5114 120.168 41.7216 119.623 42.142C119.077 42.5625 118.694 43.0114 118.472 43.4886L116.563 42.8068C116.904 42.0114 117.359 41.392 117.927 40.9489C118.501 40.5 119.126 40.1875 119.802 40.0114C120.484 39.8295 121.154 39.7386 121.813 39.7386C122.234 39.7386 122.717 39.7898 123.262 39.892C123.813 39.9886 124.344 40.1903 124.856 40.4972C125.373 40.804 125.802 41.267 126.143 41.8864C126.484 42.5057 126.654 43.3352 126.654 44.375V53H124.643V51.2273H124.54C124.404 51.5114 124.177 51.8153 123.859 52.1392C123.54 52.4631 123.117 52.7386 122.589 52.9659C122.06 53.1932 121.415 53.3068 120.654 53.3068ZM120.961 51.5C121.756 51.5 122.427 51.3438 122.972 51.0312C123.523 50.7188 123.938 50.3153 124.217 49.821C124.501 49.3267 124.643 48.8068 124.643 48.2614V46.4205C124.558 46.5227 124.37 46.6165 124.08 46.7017C123.796 46.7812 123.467 46.8523 123.092 46.9148C122.722 46.9716 122.362 47.0227 122.009 47.0682C121.663 47.108 121.381 47.142 121.165 47.1705C120.643 47.2386 120.154 47.3494 119.7 47.5028C119.251 47.6506 118.887 47.875 118.609 48.1761C118.336 48.4716 118.2 48.875 118.2 49.3864C118.2 50.0852 118.458 50.6136 118.975 50.9716C119.498 51.3239 120.16 51.5 120.961 51.5ZM130.325 53V39.9091H135.678C137.087 39.9091 138.206 40.2273 139.036 40.8636C139.865 41.5 140.28 42.3409 140.28 43.3864C140.28 44.1818 140.044 44.7983 139.572 45.2358C139.101 45.6676 138.496 45.9602 137.757 46.1136C138.24 46.1818 138.709 46.3523 139.163 46.625C139.624 46.8977 140.004 47.2727 140.305 47.75C140.607 48.2216 140.757 48.8011 140.757 49.4886C140.757 50.1591 140.587 50.7585 140.246 51.2869C139.905 51.8153 139.416 52.233 138.78 52.5398C138.143 52.8466 137.382 53 136.496 53H130.325ZM132.234 51.1591H136.496C137.189 51.1591 137.732 50.9943 138.124 50.6648C138.516 50.3352 138.712 49.8864 138.712 49.3182C138.712 48.642 138.516 48.1108 138.124 47.7244C137.732 47.3324 137.189 47.1364 136.496 47.1364H132.234V51.1591ZM132.234 45.3977H135.678C136.217 45.3977 136.68 45.3239 137.067 45.1761C137.453 45.0227 137.749 44.8068 137.953 44.5284C138.163 44.2443 138.268 43.9091 138.268 43.5227C138.268 42.9716 138.038 42.5398 137.578 42.2273C137.118 41.9091 136.484 41.75 135.678 41.75H132.234V45.3977ZM152.563 45.5341V47.4091H145.336V45.5341H152.563ZM145.813 39.9091V53H143.802V39.9091H145.813ZM154.097 39.9091V53H152.086V39.9091H154.097ZM161.623 53.3068C160.793 53.3068 160.04 53.1506 159.364 52.8381C158.688 52.5199 158.151 52.0625 157.754 51.4659C157.356 50.8636 157.157 50.1364 157.157 49.2841C157.157 48.5341 157.305 47.9261 157.6 47.4602C157.896 46.9886 158.29 46.6193 158.785 46.3523C159.279 46.0852 159.825 45.8864 160.421 45.7557C161.023 45.6193 161.629 45.5114 162.237 45.4318C163.032 45.3295 163.677 45.2528 164.171 45.2017C164.671 45.1449 165.035 45.0511 165.262 44.9205C165.495 44.7898 165.612 44.5625 165.612 44.2386V44.1705C165.612 43.3295 165.381 42.6761 164.921 42.2102C164.467 41.7443 163.776 41.5114 162.85 41.5114C161.89 41.5114 161.137 41.7216 160.592 42.142C160.046 42.5625 159.663 43.0114 159.441 43.4886L157.532 42.8068C157.873 42.0114 158.327 41.392 158.896 40.9489C159.469 40.5 160.094 40.1875 160.771 40.0114C161.452 39.8295 162.123 39.7386 162.782 39.7386C163.202 39.7386 163.685 39.7898 164.231 39.892C164.782 39.9886 165.313 40.1903 165.825 40.4972C166.342 40.804 166.771 41.267 167.112 41.8864C167.452 42.5057 167.623 43.3352 167.623 44.375V53H165.612V51.2273H165.509C165.373 51.5114 165.146 51.8153 164.827 52.1392C164.509 52.4631 164.086 52.7386 163.558 52.9659C163.029 53.1932 162.384 53.3068 161.623 53.3068ZM161.93 51.5C162.725 51.5 163.396 51.3438 163.941 51.0312C164.492 50.7188 164.907 50.3153 165.185 49.821C165.469 49.3267 165.612 48.8068 165.612 48.2614V46.4205C165.526 46.5227 165.339 46.6165 165.049 46.7017C164.765 46.7812 164.435 46.8523 164.06 46.9148C163.691 46.9716 163.33 47.0227 162.978 47.0682C162.631 47.108 162.35 47.142 162.134 47.1705C161.612 47.2386 161.123 47.3494 160.668 47.5028C160.219 47.6506 159.856 47.875 159.577 48.1761C159.305 48.4716 159.168 48.875 159.168 49.3864C159.168 50.0852 159.427 50.6136 159.944 50.9716C160.467 51.3239 161.129 51.5 161.93 51.5ZM179.169 53V41.75H175.692C174.908 41.75 174.291 41.9318 173.842 42.2955C173.393 42.6591 173.169 43.1591 173.169 43.7955C173.169 44.4205 173.371 44.9119 173.774 45.2699C174.183 45.6278 174.743 45.8068 175.453 45.8068H179.68V47.6818H175.453C174.567 47.6818 173.803 47.5256 173.161 47.2131C172.518 46.9006 172.024 46.4545 171.678 45.875C171.331 45.2898 171.158 44.5966 171.158 43.7955C171.158 42.9886 171.339 42.2955 171.703 41.7159C172.067 41.1364 172.587 40.6903 173.263 40.3778C173.945 40.0653 174.754 39.9091 175.692 39.9091H181.078V53H179.169ZM170.442 53L174.158 46.4886H176.339L172.624 53H170.442Z" fill="#656363"/>
</svg>
